<svg width="82" height="82" viewBox="0 0 82 82" fill="none" xmlns="http://www.w3.org/2000/svg">
<path d="M9.55 58.6786H39.1333V69.2857H27.3V74H55.7V69.2857H43.8667V58.6786H73.45C74.3912 58.6775 75.2935 58.3046 75.959 57.6418C76.6245 56.9789 76.9989 56.0803 77 55.1429V11.5357C76.9989 10.5983 76.6245 9.69963 75.959 9.03679C75.2935 8.37395 74.3912 8.00109 73.45 8H9.55C8.60882 8.00109 7.7065 8.37395 7.04098 9.03679C6.37546 9.69963 6.0011 10.5983 6 11.5357V55.1429C6.0011 56.0803 6.37546 56.9789 7.04098 57.6418C7.7065 58.3046 8.60882 58.6775 9.55 58.6786V58.6786ZM10.7333 12.7143H72.2667V53.9643H10.7333V12.7143Z" fill="#1B262C"/>
</svg>
