<svg width="30" height="30" viewBox="0 0 30 30" fill="none" xmlns="http://www.w3.org/2000/svg">
<path d="M9.09814 14.6106V20.2251H14.7127L13.5417 19.0542H10.2691V15.7815L9.09814 14.6106Z" fill="#144D74"/>
<path d="M24.2439 23.3223L22.5636 21.6186V23.1525H6.17092V20.7229H7.34183V19.7861H6.17092V15.8929H7.34183V14.9561H6.17092V11.2092H7.34183V10.2725H6.17092V6.9998L15.5031 16.2793V14.6283L6.00114 5.17319C5.91925 5.09062 5.81463 5.03431 5.70061 5.01144C5.5866 4.98856 5.46835 5.00016 5.36095 5.04475C5.25356 5.08935 5.16187 5.16491 5.09759 5.26182C5.0333 5.35872 4.99933 5.47257 5.00001 5.58886V23.7379C5.00001 23.8932 5.06169 24.0421 5.17149 24.1519C5.28128 24.2617 5.43019 24.3234 5.58546 24.3234H23.8282C23.9445 24.3241 24.0584 24.2901 24.1553 24.2258C24.2522 24.1615 24.3277 24.0699 24.3723 23.9625C24.4169 23.8551 24.4285 23.7368 24.4056 23.6228C24.3828 23.5088 24.3265 23.4042 24.2439 23.3223V23.3223Z" fill="#144D74"/>
<path d="M17.8799 21.9817H20.2217C20.5323 21.9817 20.8301 21.8583 21.0497 21.6387C21.2693 21.4191 21.3926 21.1213 21.3926 20.8108V9.5115L20.0461 7.03503C19.9419 6.85461 19.7915 6.70523 19.6104 6.60232C19.4293 6.4994 19.224 6.44668 19.0157 6.44958C18.8027 6.45127 18.5941 6.51104 18.4126 6.62246C18.231 6.73387 18.0833 6.89271 17.9853 7.08187L16.709 9.52321V20.8108C16.709 21.1213 16.8323 21.4191 17.0519 21.6387C17.2715 21.8583 17.5693 21.9817 17.8799 21.9817ZM17.8799 9.80423L19.0157 7.59707L20.2217 9.81008V18.469H17.8799V9.80423ZM17.8799 19.4232H20.2217V20.8518H17.8799V19.4232Z" fill="#144D74"/>
</svg>
