<svg width="37" height="37" viewBox="0 0 37 37" fill="none" xmlns="http://www.w3.org/2000/svg">
<path d="M35.15 0H1.85C1.35935 0 0.888795 0.19491 0.541852 0.541852C0.19491 0.888795 0 1.35935 0 1.85V35.15C0 35.6407 0.19491 36.1112 0.541852 36.4581C0.888795 36.8051 1.35935 37 1.85 37H35.15C35.6407 37 36.1112 36.8051 36.4581 36.4581C36.8051 36.1112 37 35.6407 37 35.15V1.85C37 1.35935 36.8051 0.888795 36.4581 0.541852C36.1112 0.19491 35.6407 0 35.15 0ZM22.2 33.3H3.7V20.35H22.2V33.3ZM22.2 16.65H3.7V3.7H22.2V16.65ZM33.3 33.3H25.9V3.7H33.3V33.3Z" fill="#1B262C"/>
</svg>
