<svg width="82" height="82" viewBox="0 0 82 82" fill="none" xmlns="http://www.w3.org/2000/svg">
<path d="M12.7143 8H8V69.2857C8 70.536 8.49668 71.7351 9.38078 72.6192C10.2649 73.5033 11.464 74 12.7143 74H74V69.2857H12.7143V8Z" fill="#1B262C"/>
<path d="M73.9999 24.5H57.4999V29.2143H65.962L48.0713 47.105L37.9592 36.9693C37.7401 36.7484 37.4794 36.573 37.1921 36.4533C36.9049 36.3337 36.5968 36.272 36.2856 36.272C35.9744 36.272 35.6663 36.3337 35.3791 36.4533C35.0919 36.573 34.8312 36.7484 34.612 36.9693L17.4285 54.1764L20.752 57.5L36.2856 41.9664L46.3978 52.1021C46.6169 52.3231 46.8776 52.4984 47.1648 52.6181C47.4521 52.7378 47.7602 52.7994 48.0713 52.7994C48.3825 52.7994 48.6906 52.7378 48.9778 52.6181C49.2651 52.4984 49.5258 52.3231 49.7449 52.1021L69.2856 32.5379V41H73.9999V24.5Z" fill="#1B262C"/>
</svg>
