<svg width="82" height="82" viewBox="0 0 82 82" fill="none" xmlns="http://www.w3.org/2000/svg">
<path d="M30.2519 73.1059C32.8203 73.1059 34.9023 71.0239 34.9023 68.4556C34.9023 65.8872 32.8203 63.8052 30.2519 63.8052C27.6836 63.8052 25.6016 65.8872 25.6016 68.4556C25.6016 71.0239 27.6836 73.1059 30.2519 73.1059Z" fill="#1B262C"/>
<path d="M62.8047 73.1059C65.373 73.1059 67.4551 71.0239 67.4551 68.4556C67.4551 65.8872 65.373 63.8052 62.8047 63.8052C60.2363 63.8052 58.1543 65.8872 58.1543 68.4556C58.1543 71.0239 60.2363 73.1059 62.8047 73.1059Z" fill="#1B262C"/>
<path d="M72.1054 19.6264H20.5326L18.626 9.86063C18.5173 9.32752 18.225 8.84941 17.8002 8.50952C17.3753 8.16964 16.8447 7.9895 16.3008 8.00047H7V12.6509H14.3941L23.2763 57.2946C23.3851 57.8277 23.6773 58.3058 24.1021 58.6457C24.527 58.9855 25.0576 59.1657 25.6015 59.1547H67.455V54.5043H27.5082L25.6015 45.2036H67.455C67.9925 45.2167 68.5179 45.0432 68.9419 44.7125C69.3658 44.3818 69.6621 43.9144 69.7802 43.3899L74.4306 22.4632C74.5085 22.1182 74.5067 21.7599 74.4253 21.4157C74.3439 21.0716 74.185 20.7505 73.9608 20.4769C73.7366 20.2034 73.4529 19.9846 73.1314 19.8372C72.8099 19.6898 72.459 19.6177 72.1054 19.6264ZM65.5949 40.5532H24.718L21.4627 24.2768H69.1989L65.5949 40.5532Z" fill="#1B262C"/>
</svg>
