<svg width="45" height="36" viewBox="0 0 45 36" fill="none" xmlns="http://www.w3.org/2000/svg">
<path fill-rule="evenodd" clip-rule="evenodd" d="M12.7861 30.3545C12.7861 29.9306 12.9545 29.5241 13.2542 29.2244C13.554 28.9247 13.9605 28.7563 14.3844 28.7563H43.1523C43.5761 28.7563 43.9827 28.9247 44.2824 29.2244C44.5821 29.5241 44.7505 29.9306 44.7505 30.3545C44.7505 30.7784 44.5821 31.1849 44.2824 31.4846C43.9827 31.7843 43.5761 31.9527 43.1523 31.9527H14.3844C13.9605 31.9527 13.554 31.7843 13.2542 31.4846C12.9545 31.1849 12.7861 30.7784 12.7861 30.3545ZM12.7861 17.5688C12.7861 17.1449 12.9545 16.7384 13.2542 16.4387C13.554 16.1389 13.9605 15.9706 14.3844 15.9706H43.1523C43.5761 15.9706 43.9827 16.1389 44.2824 16.4387C44.5821 16.7384 44.7505 17.1449 44.7505 17.5688C44.7505 17.9926 44.5821 18.3992 44.2824 18.6989C43.9827 18.9986 43.5761 19.167 43.1523 19.167H14.3844C13.9605 19.167 13.554 18.9986 13.2542 18.6989C12.9545 18.3992 12.7861 17.9926 12.7861 17.5688ZM12.7861 4.78303C12.7861 4.35916 12.9545 3.95265 13.2542 3.65292C13.554 3.3532 13.9605 3.18481 14.3844 3.18481H43.1523C43.5761 3.18481 43.9827 3.3532 44.2824 3.65292C44.5821 3.95265 44.7505 4.35916 44.7505 4.78303C44.7505 5.20691 44.5821 5.61342 44.2824 5.91314C43.9827 6.21287 43.5761 6.38125 43.1523 6.38125H14.3844C13.9605 6.38125 13.554 6.21287 13.2542 5.91314C12.9545 5.61342 12.7861 5.20691 12.7861 4.78303Z" fill="#1B262C"/>
<path d="M3.97034 0.608605C4.02472 0.432349 4.13414 0.278152 4.28255 0.168625C4.43097 0.0590967 4.61057 0 4.79502 0C4.97948 0 5.15908 0.0590967 5.30749 0.168625C5.4559 0.278152 5.56532 0.432349 5.6197 0.608605L6.13753 2.30272C6.2494 2.67031 6.58503 2.92282 6.96221 2.92282H8.72344C9.55132 2.92282 9.90612 3.98724 9.24766 4.49867L7.75172 5.65897C7.61036 5.76953 7.50593 5.92043 7.45227 6.09168C7.39861 6.26293 7.39826 6.44645 7.45126 6.6179L8.00424 8.43668C8.25356 9.25496 7.3234 9.91343 6.65215 9.39561L5.31924 8.35996C5.16939 8.24332 4.98492 8.17999 4.79502 8.17999C4.60513 8.17999 4.42066 8.24332 4.27081 8.35996L2.93789 9.39241C2.26664 9.91343 1.33968 9.25496 1.5858 8.43668L2.13878 6.61471C2.19108 6.44369 2.19036 6.26085 2.13673 6.09026C2.08309 5.91966 1.97906 5.7693 1.83832 5.65897L0.342388 4.49867C-0.316078 3.98724 0.0387268 2.92282 0.866604 2.92282H2.62464C2.81098 2.92225 2.99216 2.86161 3.1413 2.7499C3.29044 2.63819 3.39958 2.48137 3.45252 2.30272L3.97034 0.608605ZM3.97034 13.3943C4.02472 13.2181 4.13414 13.0639 4.28255 12.9544C4.43097 12.8448 4.61057 12.7857 4.79502 12.7857C4.97948 12.7857 5.15908 12.8448 5.30749 12.9544C5.4559 13.0639 5.56532 13.2181 5.6197 13.3943L6.13753 15.0885C6.2494 15.456 6.58503 15.7086 6.96221 15.7086H8.72344C9.55132 15.7086 9.90612 16.773 9.24766 17.2844L7.75172 18.4447C7.61036 18.5553 7.50593 18.7062 7.45227 18.8774C7.39861 19.0487 7.39826 19.2322 7.45126 19.4036L8.00424 21.2224C8.25356 22.0375 7.3234 22.6992 6.65215 22.1813L5.31924 21.1457C5.16939 21.0291 4.98492 20.9657 4.79502 20.9657C4.60513 20.9657 4.42066 21.0291 4.27081 21.1457L2.93789 22.1782C2.26664 22.6992 1.33968 22.0407 1.5858 21.2224L2.13878 19.4004C2.19108 19.2294 2.19036 19.0466 2.13673 18.876C2.08309 18.7054 1.97906 18.555 1.83832 18.4447L0.342388 17.2844C-0.316078 16.773 0.0387268 15.7086 0.866604 15.7086H2.62464C2.81098 15.708 2.99216 15.6474 3.1413 15.5356C3.29044 15.4239 3.39958 15.2671 3.45252 15.0885L3.97034 13.3943ZM3.97034 26.1801C4.02472 26.0038 4.13414 25.8496 4.28255 25.7401C4.43097 25.6306 4.61057 25.5715 4.79502 25.5715C4.97948 25.5715 5.15908 25.6306 5.30749 25.7401C5.4559 25.8496 5.56532 26.0038 5.6197 26.1801L6.13753 27.8742C6.2494 28.2418 6.58503 28.4943 6.96221 28.4943H8.72344C9.55132 28.4943 9.90612 29.5587 9.24766 30.0702L7.75172 31.2305C7.61036 31.341 7.50593 31.4919 7.45227 31.6632C7.39861 31.8344 7.39826 32.0179 7.45126 32.1894L8.00424 34.0082C8.25356 34.8232 7.3234 35.4849 6.65215 34.9671L5.31924 33.9314C5.16939 33.8148 4.98492 33.7515 4.79502 33.7515C4.60513 33.7515 4.42066 33.8148 4.27081 33.9314L2.93789 34.9639C2.26664 35.4849 1.33968 34.8264 1.5858 34.0082L2.13878 32.1862C2.19108 32.0152 2.19036 31.8323 2.13673 31.6617C2.08309 31.4911 1.97906 31.3408 1.83832 31.2305L0.342388 30.0702C-0.316078 29.5587 0.0387268 28.4943 0.866604 28.4943H2.62464C2.81098 28.4937 2.99216 28.4331 3.1413 28.3214C3.29044 28.2097 3.39958 28.0529 3.45252 27.8742L3.97034 26.1801Z" fill="#1B262C"/>
</svg>
