<svg width="49" height="42" viewBox="0 0 49 42" fill="none" xmlns="http://www.w3.org/2000/svg">
<path d="M0 31.3394H48.75V34.8215H0V31.3394Z" fill="#1B262C"/>
<path d="M0 38.3035H48.75V41.7856H0V38.3035Z" fill="#1B262C"/>
<path d="M38.3037 10.4465C37.615 10.4465 36.9417 10.6508 36.3691 11.0334C35.7965 11.416 35.3502 11.9598 35.0866 12.5961C34.823 13.2324 34.7541 13.9325 34.8884 14.608C35.0228 15.2835 35.3544 15.9039 35.8414 16.3909C36.3284 16.8779 36.9489 17.2096 37.6243 17.3439C38.2998 17.4783 39 17.4093 39.6362 17.1458C40.2725 16.8822 40.8163 16.4359 41.199 15.8633C41.5816 15.2906 41.7858 14.6174 41.7858 13.9287C41.7858 13.0052 41.419 12.1195 40.7659 11.4664C40.1129 10.8134 39.2272 10.4465 38.3037 10.4465Z" fill="#1B262C"/>
<path d="M24.3749 20.8929C22.9975 20.8929 21.6511 20.4845 20.5058 19.7192C19.3605 18.954 18.4679 17.8663 17.9408 16.5938C17.4137 15.3212 17.2757 13.9209 17.5445 12.57C17.8132 11.219 18.4765 9.97812 19.4504 9.00415C20.4244 8.03018 21.6653 7.36689 23.0163 7.09818C24.3672 6.82946 25.7675 6.96737 27.04 7.49448C28.3126 8.02159 29.4003 8.91423 30.1655 10.0595C30.9308 11.2048 31.3392 12.5512 31.3392 13.9286C31.3369 15.775 30.6024 17.545 29.2969 18.8506C27.9913 20.1562 26.2213 20.8906 24.3749 20.8929ZM24.3749 10.4465C23.6862 10.4465 23.013 10.6507 22.4404 11.0333C21.8677 11.416 21.4214 11.9598 21.1579 12.5961C20.8943 13.2324 20.8253 13.9325 20.9597 14.608C21.0941 15.2834 21.4257 15.9039 21.9127 16.3909C22.3997 16.8779 23.0201 17.2095 23.6956 17.3439C24.3711 17.4782 25.0712 17.4093 25.7075 17.1457C26.3438 16.8822 26.8876 16.4359 27.2702 15.8632C27.6529 15.2906 27.8571 14.6173 27.8571 13.9286C27.8562 13.0054 27.489 12.1202 26.8362 11.4674C26.1833 10.8146 25.2982 10.4474 24.3749 10.4465Z" fill="#1B262C"/>
<path d="M10.4465 10.4465C9.7578 10.4465 9.08456 10.6508 8.51193 11.0334C7.93929 11.416 7.49297 11.9598 7.22942 12.5961C6.96586 13.2324 6.89691 13.9325 7.03127 14.608C7.16562 15.2835 7.49727 15.9039 7.98425 16.3909C8.47124 16.8779 9.0917 17.2096 9.76717 17.3439C10.4426 17.4783 11.1428 17.4093 11.7791 17.1458C12.4153 16.8822 12.9592 16.4359 13.3418 15.8633C13.7244 15.2906 13.9286 14.6174 13.9286 13.9287C13.9286 13.0052 13.5618 12.1195 12.9087 11.4664C12.2557 10.8134 11.37 10.4465 10.4465 10.4465Z" fill="#1B262C"/>
<path d="M45.2679 27.8571H3.48214C2.55933 27.8548 1.67497 27.4872 1.02244 26.8347C0.369904 26.1822 0.00229843 25.2978 0 24.375V3.48214C0.00229843 2.55933 0.369904 1.67497 1.02244 1.02243C1.67497 0.369904 2.55933 0.00229843 3.48214 0H45.2679C46.1907 0.00229843 47.075 0.369904 47.7276 1.02243C48.3801 1.67497 48.7477 2.55933 48.75 3.48214V24.375C48.7486 25.2981 48.3813 26.183 47.7286 26.8357C47.0759 27.4885 46.191 27.8558 45.2679 27.8571ZM45.2679 3.48214H3.48214V24.375H45.2679V3.48214Z" fill="#1B262C"/>
</svg>
